<?xml version="1.0" encoding="UTF-8"?>
<svg version="1.1" viewBox="0 0 2048 1183" width="623" height="360" xmlns="http://www.w3.org/2000/svg">
<path transform="translate(0)" d="m0 0h2048v1183h-2048z" fill="#FDFDFD"/>
<path transform="translate(640,14)" d="m0 0h24l24 2 27 4 25 6 20 7 25 12 14 8 12 9 10 8 14 12 21 21 18 22 11 16 11 17 9 15 10 18 11 23 13 32 12 36 7 26 6 28 6 40 4 45 1 15v47l-3 34-4 29-5 28-7 28-10 30-12 29-13 26-14 22-20 26-9 10-3 1 1 4 9 9 11 15 8 15 7 19 3 15v28l-5 18-8 19-10 16-4 6 11 1 25 5 15 4 20 8 18 10 14 10 12 11 15 15 6 10v4l-5-1-11-10-8-7-11-10-13-8-15-8-18-7-27-6-38-6h-8l-11 8-15 8 44 4 30 4 37 7 15 4 18 8 16 10 14 14 7 10 8 15 4 11 1 5v16l-3 11-6 12-10 12-10 7-12 5-6 2-7 1-16-1-13-5-9-7-7-9-5-12-2-9v-16h4l2 4 3 19 6 12 8 7 9 4 4 1h18l13-4 6-3 10-9 7-14v-25l-5-13-7-11-9-10-10-8-15-8-19-8-18-4-44-6-33-4-38-7-16-3-31-4-16-5-16-8-13-9-13-12-11-14-9-16-6-15-3-13v-38l6-21 9-19 9-12 9-10 9-8 13-9 15-7 19-6 11-2h24l17 3 17 6 11 5h4l9-11 13-16 11-15 11-18 9-17 11-25 9-25 9-34 5-27 4-31 2-28v-67l-2-30-4-32-5-29-8-35-10-33-11-29-14-29-8-16-11-20-8-12-12-17-10-13-13-15-14-15-14-12-16-12-18-11-16-8-20-8-36-9-17-3-16-1h-39l-17 2-23 5-19 7-24 12-12 8-11 9-11 13-9 14-8 17-6 20-2 11-1 11v30l3 20 6 23 10 24 12 22 10 15 13 18 28 38 28 36 13 18 11 17 9 15 15 28 11 26 8 22 9 32 5 25 4 30 2 29v23l-3 34-5 31-6 25-7 24-9 24-11 24-13 26-16 24-10 14-11 14-11 13-22 24-7 7-11 9-16 13-17 12-17 11-17 10-19 10-20 9-21 8-29 8-29 7-31 5-17 2-15 1h-38l-29-3-30-5-31-8-35-12-29-13-22-12-20-12-20-14-13-11-11-9-8-7-9-11-2-2v-6l4-2h6l13 10 17 12 22 14 23 12 30 13 25 9 21 6 24 5 30 5 15 2h51l44-5 31-6 26-8 28-10 17-7 2-35h-254l-2-1-1-15v-126l1-43 1-1h255v-242l1-1h178l1 243h18l3-10 7-22 7-34 4-28 1-12v-42l-3-34-5-31-7-28-12-36-11-25-13-25-9-15-12-16-14-18-15-20-14-19-14-20-16-25-14-25-10-24-6-21-3-17v-38l4-24 4-15 9-21 11-18 9-11 11-12 15-12 15-9 16-8 18-7 24-6 21-3z" fill="#5D16E7"/>
<path transform="translate(698,752)" d="m0 0h8l-4 8-9 13-6 13-6 20-2 12v28l4 22 7 19 6 11 7 10 9 11 4 7h-111l-1 135-1 109h-167l-1-17v-116l15-7 18-8 23-11 22-12 12-8 16-11 10-8 14-12 8-7 12-11 10-9 7-6 1-2h2l2-5 9-13 14-18 10-15 10-17 15-28 9-20 9-26 10-28 1-2z" fill="#BD73E7"/>
<path transform="translate(1454,696)" d="m0 0h27l27 4 21 6 13 7 9 7 11 11 9 14 7 14 3 10 1 7v10l-3 15-8 20-8 15-10 13-11 12-10 8-14 9-16 8-17 6-20 5-18 3-15 1h-14l-15-2-17-5-9-5-10-8v-2l-10 4-21 12-6 2-6-1-6-4-4-8v-18l3-13 3-9-9 10-13 13-16 11-16 8-4 1h-11l-10-4-8-6-8-10-7-12-2-1-2 5-11 20-4 5-5-1-5-4-2-3 1-8 3-8-8 6-10 7-18 10-10 4h-15l-12-6-5-7-2-7v-9l-8 7-9 8-14 8-11 5-3 1h-11l-6-4-4-4-1-3-1-16-13 11-10 7-10 6-3 1h-11l-6-3-5-6v-9l2-11-8 7-11 10-14 9-11 5h-9l-6-5-3-7v-11l3-9v-3l-6 2-3-1 1-6 12-14 9-10 11-12 9-11 8-7 4-2h12l2 2-1 6-9 11-11 13-12 17-11 19-3 10v7l6-1 12-7 11-9 14-15 12-14 11-14 9-10 7-8 8-7 2-1h8l5 3 2 2-1 7-13 17-10 12-10 14-8 13-2 7v8l3 1 12-6 17-14 13-12 16-26 10-13 9-8h11l6 3 1 3-10 14-14 18-11 16-7 13-1 4v7l1 3 3 1 9-2 14-8 16-13 9-9 5-4 9-11 12-13 10-10 13-10 12-6 12-2 10 2 6 7 1 3v8l-5 10-7 6h-8l-7-4 6-12 3-5-13 6-10 7-13 12-8 10-8 13-3 9v8l3 7 3 1h10l13-4 14-9 13-11 10-9 6-5 15-20 10-14 16-24 14-19 9-11 9-10 4-3 3-1h10l3 1-1 6-4 6-11 14-12 15-9 11-4 2-1 4 16-9 13-4 14-1 8 3 7 6 5 10v7l-6 12-8 8-10 6-16 6-11 2h-9l-18-2 6 17 6 11 5 4 7 3 9-1 14-7 11-9 11-10 7-8 7-7 7-1 8-16 6-8 5-4 5-1 5 3 4 8 9 39 4-2 9-11 10-11 11-14 13-16 9-12 10-13 13-16 10-11 7-8 11-12 10-7 5-2h13l9 6 2 5-9 6-10 6-9 8h-2l-1 3-8 7-13 13-7 8-11 13-13 17-9 11-8 10-10 11-7 8-8 9-11 9-1 2 3 4v2l4 2 9 6 11 4 20 2 23-1 20-4 18-6 16-8 13-9 12-11h2l2-4 8-9 11-18 8-19 3-12 1-7v-12l-4-17-8-16-7-10-8-6-14-7-13-3-10-1h-36l-19 2-24 8-16 7-18 11-13 12-7 11-2 7v9l4 13v3l-9-2-8-8-4-8v-13l6-16 6-8 11-11 14-10 16-8 22-7 26-5z" fill="#641DE7"/>
<path transform="translate(783,743)" d="m0 0h35l15 4 16 8 12 9 10 9 9 12 6 12 6 20 2 15v11l-3 17-6 15-7 12-12 14-3 5-13-2-10-3-11-2-24-7-22-8-20-10-14-10-15-14v10l4 9 6 9 9 10 11 8 12 6 14 4 22 1 21 6 11 2-1 3-12 5-11 3-9 1h-18l-13-4-17-9-13-10-13-12-10-9-7-8-7-14-4-18v-19l3-17 7-16 7-11 11-12 8-8 14-9 16-6z" fill="#BD73E7"/>
<path transform="translate(1454,696)" d="m0 0h27l27 4 21 6 13 7 9 7 11 11 9 14 7 14 3 10 1 7v10l-3 15-8 20-8 15-10 13-11 12-10 8-14 9-16 8-17 6-20 5-18 3-15 1h-14l-15-2-17-5-9-5-10-8v-2l-10 4-21 12-6 2-6-1-6-4-4-8v-18l3-13 2-5h2l4-16 8-16 6-8 5-4 5-1 5 3 4 8 9 39 4-2 9-11 10-11 11-14 13-16 9-12 10-13 13-16 10-11 7-8 11-12 10-7 5-2h13l9 6 2 5-9 6-10 6-9 8h-2l-1 3-8 7-13 13-7 8-11 13-13 17-9 11-8 10-10 11-7 8-8 9-11 9-1 2 3 4v2l4 2 9 6 11 4 20 2 23-1 20-4 18-6 16-8 13-9 12-11h2l2-4 8-9 11-18 8-19 3-12 1-7v-12l-4-17-8-16-7-10-8-6-14-7-13-3-10-1h-36l-19 2-24 8-16 7-18 11-13 12-7 11-2 7v9l4 13v3l-9-2-8-8-4-8v-13l6-16 6-8 11-11 14-10 16-8 22-7 26-5z" fill="#641CE7"/>
<path transform="translate(1797,762)" d="m0 0h10l5 4v7l-10 14h58l2 1-1 4-10 3-38 5-23 3-6 3-8 9-10 17-9 17-4 13v10l1 3 4 1h9l13-3 18-8 13-9 12-11 10-10 12-16 11-13 9-10 10-9 8-4 3-1h12l5 3 4 5 1 4v11l-1 3 14-4h5l1 4-8 5-11 6h-2l-3 12-10 16-13 16-7 7-11 8-10 5-5 1h-9l-8-4-4-8-1-3v-11l-6 4-14 9-19 9-13 4-6 1h-13l-8-3-5-6-1-3-1-16-7 6-11 8-17 10-11 5-4 1h-12l-10-4-5-4-5-10-1-6 4-16 9-16 9-11 5-6 8-7 12-9 14-7 3-1h15l6 3 5 8v7l-7 14-2 2-5 1h-7l-5-3 1-7 6-10-10 4-11 7-13 11-11 14-8 14-2 9 1 8 5 5 8 1 12-3 17-10 13-11 15-14 12-20 8-16-10-2-5-5 5-8 6-3 18-1 4-4 10-13z" fill="#651DE7"/>
<path transform="translate(783,743)" d="m0 0h35l15 4 16 8 12 9 10 9 9 12 6 12 6 20 2 15v11l-3 17-6 15-7 12-12 14-3 5-13-2-13-4v-3l11-9 5-4 9-13 6-15 3-13v-18l-4-15-8-15-9-11-8-7-17-9-10-3-14-1-18 2-12 5-11 6-10 8-9 14-7 15-2 9v24l3 16 5 10 9 11 10 9 14 8 17 5 22 1 21 6 11 2-1 3-12 5-11 3-9 1h-18l-13-4-17-9-13-10-13-12-10-9-7-8-7-14-4-18v-19l3-17 7-16 7-11 11-12 8-8 14-9 16-6z" fill="#FEFEFE"/>
<path transform="translate(1638,782)" d="m0 0h10l7 4 4 8-1 14 15-4h6l-3 5-9 6-9 3-6 16-7 12-12 14-10 10-12 9-9 4-4 1h-9l-6-3-6-7-1-3v-16l5-13 9-16 8-10 12-14 5-6 11-9z" fill="#641DE7"/>
<path transform="translate(1964,763)" d="m0 0 7 1 2 2v7l-7 14-5 8-1 3 12-1 12-5h9l5 4-1 4-6 9-13 16-10 13-6 12-2 6v14l4 4h10l13-4 12-7 13-11 8-7 13-13 5 1-1 6-12 14-9 9-15 11-10 6-14 5-10 1-10-2-6-5-4-7-1-4v-11l4-17 7-17 6-10 1-3h-6l-6-5-3 1-11 15-10 13-12 14-7 4h-3l1-7 7-9 11-13 14-19 9-16 6-14 6-8z" fill="#661FE7"/>
<path transform="translate(1631,807)" d="m0 0 5 1 10 11-1 8-9 14-10 13-12 12-11 7-9 1-3-3-1-11 3-9 6-11 8-10 11-12 8-8z" fill="#FEFEFE"/>
<path transform="translate(1881,807)" d="m0 0 5 1 9 10 1 5-6 12-12 16-11 12-11 8-7 3-6-1-2-2-1-4v-9l4-10 8-12 11-13 7-8 9-7z" fill="#FEFEFE"/>
<path transform="translate(1282,791)" d="m0 0 13 1 2 2v8l-6 8-9 8-16 8-15 5h-24l1-5 12-15 11-8 16-8 9-3z" fill="#FEFEFE"/>
<path transform="translate(1343,828)" d="m0 0h2l3 13 4 11 5 12v5l-10 9-13 9-5 1-2-3-1-5v-13l3-13 8-17z" fill="#FEFEFE"/>
<path transform="translate(733,853)" d="m0 0 5 5 4 5 11 9 13 10 20 12 22 11 3 2h-21l-17-5-14-8-14-13-7-10-4-8-1-3z" fill="#BD73E7"/>
<path transform="translate(1107,763)" d="m0 0h9l6 4 3 5-1 5-5 4-5 2-7-1-5-4-2-3v-6l5-5z" fill="#661EE7"/>
<path transform="translate(1320,832)" d="m0 0h4l1 6-4 10-2-4 2-5 2-6z" fill="#C07AE8"/>
</svg>
